<svg width="20" height="19" viewBox="0 0 20 19" fill="none" xmlns="http://www.w3.org/2000/svg">
<path d="M8.70173 0.0322736C9.04769 0.201992 9.3222 0.47924 9.49571 0.826257C9.50164 0.924248 9.50349 1.0225 9.50322 1.12067C9.50322 1.1816 9.50321 1.24252 9.50321 1.30529C9.50287 1.37119 9.50252 1.43708 9.50217 1.50497C9.50203 1.60602 9.50203 1.60602 9.50189 1.70912C9.50152 1.92486 9.50069 2.14059 9.49985 2.35633C9.49951 2.50236 9.49921 2.64839 9.49894 2.79442C9.49821 3.1529 9.4971 3.51138 9.49571 3.86986C9.54159 3.86847 9.58746 3.86709 9.63473 3.86566C10.5987 3.84048 11.4812 3.85576 12.407 4.13452C12.4614 4.15014 12.5159 4.16576 12.5719 4.18185C13.7376 4.52029 14.8362 5.01618 15.7814 5.78865C15.8174 5.81781 15.8535 5.84697 15.8906 5.87701C17.8461 7.46865 19.1635 9.73453 19.4631 12.2542C19.6124 13.8814 19.3761 15.46 18.7589 16.9706C18.7271 17.0489 18.7271 17.0489 18.6948 17.1288C18.3339 18.0101 18.3339 18.0101 18.1634 18.0954C18.1611 18.0402 18.1588 17.985 18.1565 17.9281C18.052 15.5726 17.5409 13.5793 15.9799 11.7435C15.9386 11.6934 15.8973 11.6432 15.8548 11.5916C14.576 10.084 12.5115 9.04721 10.5544 8.83226C10.2018 8.80474 9.84877 8.78528 9.49571 8.76609C9.49681 8.82028 9.49681 8.82028 9.49794 8.87556C9.50529 9.2534 9.51026 9.63122 9.51388 10.0091C9.51554 10.1499 9.51779 10.2907 9.52067 10.4315C9.52471 10.6345 9.52656 10.8375 9.52802 11.0405C9.52973 11.1029 9.53143 11.1653 9.53319 11.2296C9.53337 11.6531 9.44992 11.9513 9.16488 12.2729C8.87078 12.4941 8.53784 12.6087 8.16827 12.5918C7.74652 12.474 7.40519 12.1786 7.05997 11.9184C6.86651 11.7731 6.66997 11.6322 6.47341 11.4912C6.32279 11.3829 6.17264 11.2741 6.02255 11.1651C5.73581 10.9574 5.44721 10.7524 5.15775 10.5484C5.11156 10.5159 5.06538 10.4833 5.01779 10.4498C4.87839 10.3517 4.73895 10.2536 4.59948 10.1556C3.97338 9.7154 3.34956 9.27249 2.72991 8.82329C2.43483 8.60967 2.13837 8.39822 1.84025 8.18889C1.65521 8.05891 1.47069 7.9282 1.28624 7.79739C1.20381 7.73917 1.12115 7.68125 1.03825 7.62371C0.117428 6.98386 0.117428 6.98386 0.003578 6.43583C-0.025372 6.03329 0.123726 5.76936 0.364902 5.45783C0.511268 5.31565 0.669553 5.19866 0.83633 5.08151C0.882185 5.0482 0.928039 5.01489 0.975284 4.98057C1.37928 4.68931 1.79125 4.40916 2.20346 4.12969C2.71784 3.78067 3.22114 3.41729 3.72357 3.05136C3.97244 2.87018 4.22181 2.68969 4.47128 2.50934C4.52059 2.47368 4.56989 2.43803 4.62069 2.4013C4.9996 2.1278 5.38089 1.85781 5.76335 1.58931C6.06323 1.37839 6.36038 1.16405 6.65642 0.947781C6.89593 0.773302 7.13692 0.600963 7.37842 0.429265C7.44401 0.38227 7.5096 0.335274 7.57718 0.286855C7.94594 0.0415922 8.25908 -0.0567161 8.70173 0.0322736Z" fill="#FEFEFD"/>
</svg>
