<svg width="1119" height="88" viewBox="0 0 1119 88" fill="none" xmlns="http://www.w3.org/2000/svg">
<path d="M267.679 12.3555C269.86 12.6159 271.748 12.8112 273.343 12.9414C274.938 13.0391 276.256 13.1204 277.298 13.1855C278.502 13.2507 279.511 13.2669 280.325 13.2344C281.172 13.2018 282.327 13.1204 283.792 12.9902C285.029 12.8926 286.657 12.7624 288.675 12.5996C290.693 12.4043 293.216 12.1439 296.243 11.8184C296.276 12.5671 296.292 13.2995 296.292 14.0156C296.325 14.6992 296.357 15.3014 296.39 15.8223C296.422 16.4408 296.438 17.0104 296.438 17.5312C296.438 18.0846 296.406 18.7845 296.341 19.6309C296.276 20.347 296.162 21.2585 295.999 22.3652C295.869 23.4395 295.657 24.7253 295.364 26.2227C294.909 24.4648 294.469 23.0488 294.046 21.9746C293.623 20.8678 293.232 19.9889 292.874 19.3379C292.483 18.5892 292.093 18.0195 291.702 17.6289C291.279 17.3359 290.774 17.0918 290.188 16.8965C289.668 16.7337 289 16.6035 288.187 16.5059C287.405 16.4082 286.478 16.4245 285.403 16.5547C285.241 20.8516 285.127 24.3346 285.062 27.0039C284.996 29.6732 284.948 31.7565 284.915 33.2539C284.882 35.0443 284.866 36.3301 284.866 37.1113C284.899 38.2181 285.078 39.3086 285.403 40.3828C285.664 41.2943 286.087 42.2383 286.673 43.2148C287.259 44.1914 288.105 45.054 289.212 45.8027H283.255C282.701 45.8027 282.018 45.8353 281.204 45.9004C280.521 45.9655 279.642 46.0306 278.567 46.0957C277.526 46.1608 276.305 46.2747 274.905 46.4375C275.394 45.5911 275.784 44.8262 276.077 44.1426C276.37 43.459 276.598 42.873 276.761 42.3848C276.956 41.7988 277.103 41.278 277.2 40.8223C277.233 40.1712 277.314 38.8529 277.444 36.8672C277.477 36.0534 277.509 35.0443 277.542 33.8398C277.607 32.6354 277.672 31.2031 277.737 29.543C277.835 27.8828 277.916 25.9785 277.981 23.8301C278.079 21.6491 278.177 19.1914 278.274 16.457C277.688 16.2943 277.135 16.3105 276.614 16.5059C276.093 16.6686 275.638 16.8802 275.247 17.1406C274.791 17.4661 274.352 17.8568 273.929 18.3125C273.506 18.8659 273.034 19.582 272.513 20.4609C272.057 21.2096 271.536 22.2025 270.95 23.4395C270.364 24.6439 269.697 26.1413 268.948 27.9316C268.785 26.0436 268.672 24.4974 268.606 23.293C268.541 22.056 268.493 21.0957 268.46 20.4121C268.427 19.5983 268.411 18.9961 268.411 18.6055C268.411 18.2474 268.379 17.7754 268.313 17.1895C268.248 16.7012 268.167 16.0664 268.069 15.2852C267.972 14.4714 267.841 13.4948 267.679 12.3555ZM293.46 13.332C294.599 13.4622 295.56 13.5599 296.341 13.625C297.122 13.6576 297.741 13.6901 298.196 13.7227C298.75 13.7552 299.189 13.7715 299.515 13.7715C300.068 13.7715 300.703 13.7552 301.419 13.7227C302.037 13.6901 302.754 13.6413 303.567 13.5762C304.414 13.4785 305.325 13.332 306.302 13.1367C305.846 13.625 305.472 14.097 305.179 14.5527C304.886 14.9759 304.658 15.3665 304.495 15.7246C304.3 16.1152 304.137 16.4733 304.007 16.7988C303.877 17.222 303.73 17.873 303.567 18.752C303.405 19.5007 303.226 20.5586 303.03 21.9258C302.868 23.293 302.656 25.0833 302.396 27.2969C303.502 27.3294 304.463 27.3457 305.276 27.3457C306.09 27.3132 306.774 27.2969 307.327 27.2969H308.938C309.394 27.2643 309.915 27.2318 310.501 27.1992C311.478 27.1667 312.959 27.069 314.944 26.9062C315.107 25.4089 315.188 24.123 315.188 23.0488C315.221 21.9421 315.205 21.0143 315.14 20.2656C315.075 19.4193 314.977 18.7031 314.847 18.1172C314.749 17.7917 314.603 17.401 314.407 16.9453C314.244 16.5547 314.017 16.0827 313.724 15.5293C313.463 14.9434 313.105 14.2435 312.649 13.4297C313.496 13.5599 314.244 13.6576 314.896 13.7227C315.579 13.7552 316.149 13.7878 316.604 13.8203C317.125 13.8529 317.565 13.8691 317.923 13.8691C318.281 13.8691 318.753 13.8529 319.339 13.8203C319.827 13.7878 320.429 13.7715 321.146 13.7715C321.862 13.7389 322.741 13.6901 323.782 13.625C323.522 14.0807 323.294 14.5527 323.099 15.041C322.903 15.5293 322.741 15.9688 322.61 16.3594C322.48 16.8151 322.35 17.2708 322.22 17.7266C322.057 18.4102 321.91 19.403 321.78 20.7051C321.683 22.0072 321.585 23.4557 321.487 25.0508C321.422 26.6458 321.357 28.306 321.292 30.0312C321.259 31.7565 321.227 33.3841 321.194 34.9141C321.194 36.444 321.211 37.8112 321.243 39.0156C321.276 40.1875 321.341 41.0176 321.438 41.5059C321.536 42.0918 321.699 42.694 321.927 43.3125C322.122 43.8659 322.382 44.4681 322.708 45.1191C323.034 45.7376 323.457 46.3236 323.978 46.877L312.21 47.7559C312.698 47.3001 313.089 46.8607 313.382 46.4375C313.675 45.9818 313.903 45.5911 314.065 45.2656C314.228 44.9076 314.342 44.5658 314.407 44.2402C314.44 43.8496 314.489 43.166 314.554 42.1895C314.619 41.3757 314.684 40.2201 314.749 38.7227C314.814 37.2253 314.879 35.2396 314.944 32.7656C314.489 32.7656 313.935 32.7819 313.284 32.8145C312.666 32.8145 312.08 32.8307 311.526 32.8633C310.875 32.8958 310.192 32.9121 309.476 32.9121C308.759 32.9447 308.011 32.9772 307.229 33.0098C306.578 33.0749 305.846 33.14 305.032 33.2051C304.251 33.2376 303.47 33.2865 302.688 33.3516C302.623 34.7188 302.623 35.9232 302.688 36.9648C302.754 37.974 302.851 38.8366 302.981 39.5527C303.112 40.3991 303.274 41.1315 303.47 41.75C303.665 42.3359 303.877 42.9219 304.104 43.5078C304.3 44.0286 304.528 44.582 304.788 45.168C305.081 45.7539 305.374 46.2747 305.667 46.7305C305.049 46.6654 304.479 46.6165 303.958 46.584C303.437 46.5189 302.981 46.4538 302.591 46.3887C302.135 46.3561 301.696 46.3236 301.272 46.291C300.849 46.291 300.345 46.2747 299.759 46.2422C299.238 46.2096 298.587 46.1934 297.806 46.1934C297.024 46.1608 296.113 46.1445 295.071 46.1445C295.69 45.526 296.178 44.9238 296.536 44.3379C296.927 43.7194 297.203 43.166 297.366 42.6777C297.562 42.0918 297.692 41.5547 297.757 41.0664C297.789 40.6432 297.806 39.8457 297.806 38.6738C297.838 37.502 297.838 36.1673 297.806 34.6699C297.806 33.14 297.789 31.5449 297.757 29.8848C297.724 28.1921 297.675 26.6133 297.61 25.1484C297.578 23.6836 297.529 22.4303 297.464 21.3887C297.431 20.3145 297.399 19.6471 297.366 19.3867C297.203 18.8008 296.959 18.166 296.634 17.4824C296.341 16.929 295.95 16.2943 295.462 15.5781C294.974 14.8294 294.306 14.0807 293.46 13.332ZM322.464 14.6504C324.743 14.7155 326.631 14.7643 328.128 14.7969C329.658 14.7969 330.895 14.7969 331.839 14.7969H334.427H348.978C349.043 15.4479 349.091 16.0827 349.124 16.7012C349.189 17.2871 349.222 17.8079 349.222 18.2637C349.222 18.8171 349.205 19.3216 349.173 19.7773C349.14 20.2331 349.091 20.7214 349.026 21.2422C348.961 21.6979 348.896 22.1862 348.831 22.707C348.766 23.2279 348.652 23.765 348.489 24.3184C348.034 22.5605 347.415 21.2259 346.634 20.3145C345.885 19.403 345.12 18.7357 344.339 18.3125C343.427 17.8242 342.467 17.5638 341.458 17.5312C340.123 17.5964 339.082 17.7103 338.333 17.873C337.584 18.0358 336.998 18.2637 336.575 18.5566C336.152 18.8496 335.826 19.1914 335.599 19.582C335.403 19.9401 335.192 20.347 334.964 20.8027C334.769 21.1934 334.59 21.7956 334.427 22.6094C334.264 23.293 334.101 24.2207 333.938 25.3926C333.808 26.5645 333.662 28.0781 333.499 29.9336C334.378 29.6732 335.078 29.429 335.599 29.2012C336.152 28.9733 336.591 28.778 336.917 28.6152C337.275 28.4199 337.535 28.2409 337.698 28.0781C337.828 27.8828 338.024 27.5247 338.284 27.0039C338.479 26.5482 338.74 25.9297 339.065 25.1484C339.424 24.3672 339.847 23.293 340.335 21.9258C340.4 23.4232 340.433 24.6764 340.433 25.6855C340.433 26.6621 340.449 27.4596 340.481 28.0781C340.481 28.7943 340.498 29.3639 340.53 29.7871V31.6426C340.53 32.3262 340.53 33.2539 340.53 34.4258C340.563 35.5651 340.612 37.0137 340.677 38.7715C340.286 37.5671 339.928 36.623 339.603 35.9395C339.31 35.2233 339.049 34.6862 338.821 34.3281C338.561 33.9049 338.333 33.612 338.138 33.4492C337.91 33.3841 337.601 33.319 337.21 33.2539C336.852 33.2214 336.396 33.2051 335.843 33.2051C335.322 33.2051 334.655 33.2865 333.841 33.4492C333.743 35.2396 333.727 36.6882 333.792 37.7949C333.89 38.8691 334.02 39.6992 334.183 40.2852C334.345 40.9688 334.541 41.457 334.769 41.75C335.062 42.043 335.647 42.2871 336.526 42.4824C337.405 42.6452 338.398 42.7103 339.505 42.6777C340.644 42.6126 341.8 42.4173 342.972 42.0918C344.144 41.7663 345.185 41.2292 346.097 40.4805C346.78 39.862 347.513 39.0807 348.294 38.1367C348.945 37.3229 349.661 36.2975 350.442 35.0605C351.256 33.8236 352.054 32.3262 352.835 30.5684C352.705 32.0332 352.607 33.2539 352.542 34.2305C352.509 35.1745 352.461 35.9395 352.396 36.5254C352.33 37.209 352.282 37.7298 352.249 38.0879C352.249 38.4785 352.2 39.0319 352.103 39.748C352.037 40.3665 351.924 41.2129 351.761 42.2871C351.631 43.3288 351.451 44.6634 351.224 46.291C349.694 46.3236 348.245 46.3561 346.878 46.3887C345.511 46.3887 344.306 46.4049 343.265 46.4375C342.028 46.4701 340.888 46.5026 339.847 46.5352C338.772 46.5352 337.584 46.584 336.282 46.6816C335.143 46.7467 333.792 46.8444 332.229 46.9746C330.7 47.1048 329.007 47.2839 327.151 47.5117C327.314 45.2982 327.428 43.2148 327.493 41.2617C327.591 39.276 327.656 37.5345 327.688 36.0371C327.721 34.2793 327.721 32.6517 327.688 31.1543C327.851 27.4108 327.786 24.3835 327.493 22.0723C327.2 19.7611 326.858 18.2799 326.468 17.6289C326.272 17.401 325.996 17.1243 325.638 16.7988C325.345 16.5384 324.938 16.2292 324.417 15.8711C323.896 15.513 323.245 15.1061 322.464 14.6504ZM368.606 13.0391C369.843 13.332 370.95 13.5599 371.927 13.7227C372.936 13.8529 373.782 13.9505 374.466 14.0156C375.28 14.1133 375.996 14.1458 376.614 14.1133C377.396 14.0807 378.372 13.9668 379.544 13.7715C380.716 13.5762 381.953 13.3809 383.255 13.1855C384.557 12.9902 385.843 12.8275 387.112 12.6973C388.382 12.5671 389.489 12.5508 390.433 12.6484C391.377 12.7461 392.369 12.974 393.411 13.332C394.453 13.6576 395.429 14.1133 396.341 14.6992C397.252 15.2526 398.034 15.9362 398.685 16.75C399.368 17.5638 399.791 18.5078 399.954 19.582C400.117 20.6237 400.019 21.7467 399.661 22.9512C399.303 24.123 398.733 25.2786 397.952 26.418C397.171 27.5247 396.194 28.5501 395.022 29.4941C393.851 30.4382 392.549 31.2031 391.116 31.7891C389.977 32.2122 388.74 32.5378 387.405 32.7656C386.266 32.9609 384.931 33.0911 383.401 33.1562C381.904 33.1888 380.309 33.026 378.616 32.668C378.388 33.612 378.258 34.4909 378.226 35.3047C378.226 36.0859 378.258 36.7858 378.323 37.4043C378.421 38.1204 378.551 38.7715 378.714 39.3574C378.909 39.9434 379.153 40.627 379.446 41.4082C379.707 42.0592 380 42.8568 380.325 43.8008C380.683 44.7122 381.106 45.7376 381.595 46.877C381.009 46.877 380.439 46.8932 379.886 46.9258C379.332 46.9258 378.828 46.9421 378.372 46.9746C377.851 47.0072 377.363 47.0397 376.907 47.0723C376.386 47.1048 375.8 47.1699 375.149 47.2676C374.596 47.3327 373.896 47.4303 373.05 47.5605C372.236 47.6908 371.308 47.8535 370.267 48.0488C370.95 47.0723 371.487 46.1771 371.878 45.3633C372.301 44.5169 372.61 43.7845 372.806 43.166C373.034 42.4499 373.18 41.7988 373.245 41.2129C373.278 40.7246 373.278 39.862 373.245 38.625C373.245 37.388 373.229 35.9557 373.196 34.3281C373.164 32.7005 373.115 30.9915 373.05 29.2012C372.985 27.4108 372.903 25.7344 372.806 24.1719C372.708 22.5768 372.594 21.2096 372.464 20.0703C372.366 18.931 372.269 18.1823 372.171 17.8242C372.041 17.401 371.813 16.9453 371.487 16.457C371.227 16.0339 370.853 15.5456 370.364 14.9922C369.909 14.4062 369.323 13.7552 368.606 13.0391ZM378.714 22.6582C378.681 22.9837 378.665 23.3255 378.665 23.6836C378.665 24.3672 378.714 25.2461 378.812 26.3203C379.039 26.8737 379.316 27.3294 379.642 27.6875C380 28.0456 380.374 28.3223 380.765 28.5176C381.188 28.7129 381.611 28.8431 382.034 28.9082C382.457 28.9733 382.881 29.0059 383.304 29.0059C384.28 28.9733 385.306 28.7454 386.38 28.3223C387.812 27.7038 388.821 26.8249 389.407 25.6855C389.993 24.5462 390.302 23.3743 390.335 22.1699C390.368 20.9655 390.156 19.8587 389.7 18.8496C389.277 17.8405 388.756 17.1569 388.138 16.7988C387.617 16.571 386.95 16.4733 386.136 16.5059C385.42 16.5384 384.524 16.7174 383.45 17.043C382.376 17.3685 381.058 17.9544 379.495 18.8008C379.332 19.3867 379.202 19.9076 379.104 20.3633C379.007 20.819 378.925 21.2259 378.86 21.584C378.795 21.9746 378.746 22.3327 378.714 22.6582ZM400.491 12.5996C401.435 12.7624 402.265 12.8763 402.981 12.9414C403.73 13.0065 404.349 13.0553 404.837 13.0879C405.423 13.1204 405.927 13.1367 406.351 13.1367C406.774 13.1367 407.376 13.1042 408.157 13.0391C408.808 12.974 409.655 12.8926 410.696 12.7949C411.771 12.6973 413.089 12.5345 414.651 12.3066C414.196 12.4368 413.772 12.8112 413.382 13.4297C413.024 14.0156 412.698 14.6504 412.405 15.334C412.047 16.1478 411.738 17.043 411.478 18.0195C411.25 18.8984 410.957 20.1029 410.599 21.6328C410.273 23.1628 409.948 24.8229 409.622 26.6133C409.329 28.4036 409.101 30.2266 408.938 32.082C408.776 33.9049 408.743 35.5814 408.841 37.1113C408.971 38.6413 409.28 39.9108 409.769 40.9199C410.257 41.8965 411.006 42.4173 412.015 42.4824C413.545 42.6126 414.814 42.6289 415.823 42.5312C416.865 42.401 417.711 42.222 418.362 41.9941C419.013 41.7663 419.518 41.5059 419.876 41.2129C420.234 40.8874 420.511 40.5781 420.706 40.2852C421.227 39.5365 421.764 38.5762 422.317 37.4043C422.871 36.2324 423.359 35.1094 423.782 34.0352C424.238 32.9609 424.612 32.0495 424.905 31.3008C425.198 30.5521 425.345 30.194 425.345 30.2266C425.345 30.2917 425.328 30.666 425.296 31.3496C425.296 32.0007 425.28 32.7982 425.247 33.7422C425.247 34.6536 425.231 35.6139 425.198 36.623C425.198 37.6322 425.182 38.4948 425.149 39.2109C425.117 39.7969 425.084 40.4479 425.052 41.1641C425.019 41.7826 424.987 42.515 424.954 43.3613C424.954 44.2077 424.922 45.1354 424.856 46.1445C423.489 46.0469 422.187 45.9818 420.95 45.9492C419.713 45.9167 418.623 45.9004 417.679 45.9004C416.572 45.9004 415.547 45.9167 414.603 45.9492C413.593 45.9818 412.422 46.0306 411.087 46.0957C409.948 46.1608 408.532 46.2422 406.839 46.3398C405.146 46.4049 403.193 46.5026 400.979 46.6328C401.24 46.1771 401.451 45.7539 401.614 45.3633C401.81 44.9727 401.956 44.6471 402.054 44.3867C402.184 44.0612 402.265 43.7845 402.298 43.5566C402.493 42.515 402.656 41.1966 402.786 39.6016C402.916 37.974 403.014 36.2487 403.079 34.4258C403.177 32.6029 403.226 30.7474 403.226 28.8594C403.258 26.9388 403.258 25.1647 403.226 23.5371C403.193 21.9095 403.128 20.4935 403.03 19.2891C402.965 18.0846 402.868 17.2546 402.737 16.7988C402.575 16.278 402.379 15.7572 402.151 15.2363C401.956 14.7806 401.712 14.3249 401.419 13.8691C401.159 13.3809 400.849 12.9577 400.491 12.5996ZM434.28 14.9434C435.908 15.041 437.275 15.1224 438.382 15.1875C439.521 15.2201 440.465 15.2526 441.214 15.2852C442.06 15.3177 442.776 15.3177 443.362 15.2852C443.948 15.2526 444.746 15.1712 445.755 15.041C446.601 14.9434 447.724 14.7969 449.124 14.6016C450.556 14.3737 452.33 14.0807 454.446 13.7227C453.698 14.4714 453.112 15.1549 452.688 15.7734C452.298 16.3594 451.989 16.8639 451.761 17.2871C451.5 17.8079 451.321 18.2474 451.224 18.6055C451.159 18.931 451.224 19.7448 451.419 21.0469C451.614 22.349 451.891 23.8952 452.249 25.6855C452.607 27.4434 452.998 29.3314 453.421 31.3496C453.844 33.3353 454.267 35.207 454.69 36.9648C455.114 38.6901 455.488 40.1712 455.813 41.4082C456.172 42.6126 456.432 43.3288 456.595 43.5566C457.083 44.2402 457.392 44.696 457.522 44.9238C457.653 45.1191 457.881 45.2982 458.206 45.4609C458.336 45.526 458.548 45.6237 458.841 45.7539C459.101 45.8841 459.443 46.0469 459.866 46.2422C460.322 46.4375 460.892 46.6654 461.575 46.9258C460.306 46.9909 459.215 47.0397 458.304 47.0723C457.392 47.0723 456.644 47.0885 456.058 47.1211C455.374 47.1536 454.788 47.1862 454.3 47.2188C453.812 47.2188 453.226 47.2513 452.542 47.3164C451.956 47.3815 451.191 47.4466 450.247 47.5117C449.336 47.5768 448.261 47.6419 447.024 47.707C447.675 47.2513 448.196 46.8444 448.587 46.4863C449.01 46.0957 449.336 45.7702 449.563 45.5098C449.824 45.1842 450.003 44.8913 450.101 44.6309C450.166 44.3379 450.215 43.8984 450.247 43.3125C450.28 42.7917 450.28 42.1081 450.247 41.2617C450.215 40.3828 450.133 39.2435 450.003 37.8438L437.161 39.1621C436.836 39.7155 436.591 40.2038 436.429 40.627C436.266 41.0176 436.152 41.3594 436.087 41.6523C435.989 42.0104 435.957 42.3034 435.989 42.5312C436.054 42.7917 436.168 43.1009 436.331 43.459C436.494 43.7845 436.722 44.1751 437.015 44.6309C437.34 45.054 437.812 45.5586 438.431 46.1445C437.617 46.112 436.787 46.0957 435.94 46.0957C435.094 46.0957 434.313 46.112 433.597 46.1445C432.75 46.1771 431.92 46.2096 431.106 46.2422C430.293 46.2747 429.365 46.3236 428.323 46.3887C427.444 46.4538 426.419 46.5352 425.247 46.6328C424.043 46.6979 422.757 46.7956 421.39 46.9258C422.236 46.5352 422.952 46.1445 423.538 45.7539C424.124 45.3307 424.612 44.9401 425.003 44.582C425.459 44.1914 425.849 43.8171 426.175 43.459C426.403 43.1335 426.858 42.3848 427.542 41.2129C428.226 40.0085 428.991 38.5924 429.837 36.9648C430.716 35.3372 431.627 33.5957 432.571 31.7402C433.548 29.8848 434.427 28.1432 435.208 26.5156C435.989 24.8555 436.624 23.4232 437.112 22.2188C437.601 21.0143 437.845 20.2331 437.845 19.875C437.78 19.4518 437.617 18.9798 437.356 18.459C437.129 18.0033 436.771 17.4824 436.282 16.8965C435.826 16.3105 435.159 15.6595 434.28 14.9434ZM449.417 34.2305C449.222 33.0911 449.043 32.1146 448.88 31.3008C448.717 30.4544 448.587 29.7546 448.489 29.2012C448.359 28.5501 448.261 27.9805 448.196 27.4922C448.099 27.0365 447.985 26.4505 447.854 25.7344C447.724 25.1159 447.562 24.3509 447.366 23.4395C447.203 22.4954 446.992 21.3724 446.731 20.0703C444.876 23.7812 443.427 26.6621 442.386 28.7129C441.377 30.7311 440.644 32.2122 440.188 33.1562C439.635 34.263 439.326 34.9141 439.261 35.1094L449.417 34.2305ZM452.054 13.332C453.453 13.4622 454.69 13.5599 455.765 13.625C456.839 13.6901 457.734 13.7552 458.45 13.8203C459.297 13.8854 460.013 13.9342 460.599 13.9668C461.185 13.9993 461.901 14.0156 462.747 14.0156C463.463 14.0482 464.358 14.0645 465.433 14.0645C466.507 14.0645 467.776 14.0645 469.241 14.0645C468.297 14.5202 467.565 14.9434 467.044 15.334C466.556 15.7246 466.181 16.0664 465.921 16.3594C465.595 16.7174 465.4 17.043 465.335 17.3359C465.302 17.5964 465.368 18.0358 465.53 18.6543C465.693 19.2728 465.921 19.9727 466.214 20.7539C466.507 21.5026 466.865 22.3001 467.288 23.1465C467.711 23.9928 468.151 24.7578 468.606 25.4414C469.095 26.0924 469.583 26.6296 470.071 27.0527C470.56 27.4759 471.032 27.6712 471.487 27.6387C471.943 27.6061 472.496 27.3945 473.147 27.0039C473.799 26.5807 474.466 26.0599 475.149 25.4414C475.866 24.8229 476.565 24.1556 477.249 23.4395C477.933 22.7233 478.535 22.0234 479.056 21.3398C479.609 20.6562 480.049 20.0378 480.374 19.4844C480.732 18.8984 480.911 18.4753 480.911 18.2148C480.879 17.8893 480.748 17.515 480.521 17.0918C480.325 16.7337 480 16.3105 479.544 15.8223C479.088 15.3014 478.453 14.7155 477.64 14.0645C480.309 14.1621 482.262 14.2109 483.499 14.2109H485.306H487.356C488.105 14.2109 489.098 14.2109 490.335 14.2109C491.572 14.1784 493.118 14.1296 494.974 14.0645C493.704 14.9108 492.597 15.6758 491.653 16.3594C490.742 17.0104 489.961 17.5638 489.31 18.0195C488.561 18.5729 487.942 19.0612 487.454 19.4844C486.901 19.9401 486.136 20.6562 485.159 21.6328C484.313 22.4792 483.19 23.6185 481.79 25.0508C480.39 26.4505 478.632 28.2734 476.517 30.5195C476.224 32.8958 476.028 34.8164 475.931 36.2812C475.866 37.7461 475.833 38.9017 475.833 39.748C475.833 40.7246 475.898 41.457 476.028 41.9453C476.191 42.3359 476.468 42.7917 476.858 43.3125C477.184 43.7682 477.64 44.3053 478.226 44.9238C478.844 45.5423 479.658 46.2259 480.667 46.9746C479.593 46.7142 478.584 46.5189 477.64 46.3887C476.728 46.2585 475.914 46.1608 475.198 46.0957C474.352 45.998 473.587 45.9492 472.903 45.9492C472.187 45.9492 471.341 45.9818 470.364 46.0469C469.518 46.112 468.509 46.1934 467.337 46.291C466.165 46.3887 464.798 46.5352 463.235 46.7305C464.049 46.1771 464.716 45.6237 465.237 45.0703C465.758 44.5169 466.165 44.0124 466.458 43.5566C466.816 43.0358 467.076 42.5475 467.239 42.0918C467.369 41.571 467.467 40.8223 467.532 39.8457C467.597 38.9993 467.597 37.8763 467.532 36.4766C467.5 35.0768 467.402 33.3027 467.239 31.1543C465.286 28.0293 463.691 25.5716 462.454 23.7812C461.217 21.9583 460.257 20.5749 459.573 19.6309C458.759 18.5566 458.174 17.8405 457.815 17.4824C457.49 17.222 457.05 16.8965 456.497 16.5059C456.041 16.1478 455.455 15.7246 454.739 15.2363C453.991 14.7155 453.095 14.0807 452.054 13.332ZM504.837 12.7461C506.92 12.7135 508.629 13.0879 509.964 13.8691C511.331 14.6504 512.438 15.5781 513.284 16.6523C514.131 17.7266 514.782 18.8171 515.237 19.9238C515.693 20.998 516.051 21.8444 516.312 22.4629C516.377 22.6257 516.507 22.8372 516.702 23.0977C516.865 23.3255 517.093 23.6022 517.386 23.9277C517.711 24.2207 518.118 24.5625 518.606 24.9531C517.597 24.9857 516.702 25.0182 515.921 25.0508C515.14 25.0508 514.472 25.0671 513.919 25.0996C513.3 25.1322 512.747 25.1647 512.259 25.1973C511.771 25.2298 511.168 25.2786 510.452 25.3438C509.801 25.4089 509.004 25.474 508.06 25.5391C507.116 25.6042 505.96 25.7018 504.593 25.832C505.407 24.8555 506.041 23.9928 506.497 23.2441C506.985 22.4629 507.343 21.7793 507.571 21.1934C507.832 20.5749 507.978 20.0378 508.011 19.582C508.076 19.1263 508.06 18.7357 507.962 18.4102C507.767 17.6615 507.262 17.1243 506.448 16.7988C504.104 16.1478 502.054 16.6686 500.296 18.3613C498.571 20.0215 497.334 22.7559 496.585 26.5645C496.227 28.4525 495.885 30.4219 495.56 32.4727C495.267 34.4909 495.153 36.3464 495.218 38.0391C495.283 39.6992 495.608 41.0501 496.194 42.0918C496.78 43.1335 497.789 43.6217 499.222 43.5566C500.621 43.4915 501.81 43.2637 502.786 42.873C503.763 42.4499 504.544 41.9616 505.13 41.4082C505.716 40.8223 506.123 40.2038 506.351 39.5527C506.611 38.8691 506.709 38.2344 506.644 37.6484C506.513 37.1927 506.172 36.7044 505.618 36.1836C505.13 35.7279 504.397 35.2233 503.421 34.6699C502.444 34.084 501.045 33.4818 499.222 32.8633C500.947 32.7656 502.363 32.7005 503.47 32.668C504.609 32.6029 505.504 32.5378 506.155 32.4727C506.937 32.4076 507.539 32.3587 507.962 32.3262C508.353 32.2936 508.922 32.2611 509.671 32.2285C510.322 32.196 511.152 32.1797 512.161 32.1797C513.203 32.1797 514.505 32.1634 516.067 32.1309C515.481 32.7168 515.026 33.2539 514.7 33.7422C514.537 34.0026 514.391 34.2305 514.261 34.4258C514.131 34.7513 514.082 35.4186 514.114 36.4277C514.114 37.2741 514.179 38.5273 514.31 40.1875C514.44 41.8151 514.684 44.0449 515.042 46.877L508.548 47.7559L508.841 41.1641C508.092 42.9544 507.148 44.2891 506.009 45.168C504.902 46.0469 503.844 46.6654 502.835 47.0234C501.631 47.4466 500.377 47.6419 499.075 47.6094C497.382 47.4466 495.69 47.056 493.997 46.4375C492.304 45.819 490.807 44.875 489.505 43.6055C488.203 42.3034 487.194 40.627 486.478 38.5762C485.794 36.5254 485.582 33.9863 485.843 30.959C486.136 27.9316 486.852 25.2949 487.991 23.0488C489.163 20.7702 490.612 18.8822 492.337 17.3848C494.062 15.8874 495.999 14.7643 498.147 14.0156C500.328 13.2344 502.558 12.8112 504.837 12.7461ZM516.116 12.3555C517.158 12.5182 518.102 12.6647 518.948 12.7949C519.795 12.8926 520.527 12.974 521.146 13.0391C521.862 13.1367 522.496 13.2181 523.05 13.2832C523.733 13.3809 524.759 13.2669 526.126 12.9414C527.493 12.5833 528.991 12.2578 530.618 11.9648C532.278 11.6393 533.971 11.4603 535.696 11.4277C537.422 11.3626 539 11.6719 540.433 12.3555C541.865 13.0391 543.037 13.7227 543.948 14.4062C544.86 15.0898 545.576 15.8223 546.097 16.6035C546.65 17.3522 547.041 18.1497 547.269 18.9961C547.496 19.8424 547.627 20.7702 547.659 21.7793C547.627 23.2767 547.269 24.7253 546.585 26.125C546.292 26.7109 545.901 27.3294 545.413 27.9805C544.957 28.599 544.388 29.2012 543.704 29.7871C543.021 30.373 542.207 30.9264 541.263 31.4473C540.351 31.9681 539.277 32.4238 538.04 32.8145C539.244 33.1725 540.237 33.5957 541.019 34.084C541.832 34.5723 542.483 35.028 542.972 35.4512C543.558 35.972 543.997 36.4766 544.29 36.9648C544.648 37.6484 544.892 38.2344 545.022 38.7227C545.153 39.2109 545.234 39.6829 545.267 40.1387C545.332 40.5618 545.413 41.0013 545.511 41.457C545.608 41.9128 545.82 42.4336 546.146 43.0195C546.406 43.4753 546.715 43.9473 547.073 44.4355C547.399 44.8587 547.773 45.3145 548.196 45.8027C548.652 46.291 549.205 46.763 549.856 47.2188C548.945 47.2513 548.099 47.2676 547.317 47.2676C546.569 47.2676 545.918 47.2676 545.364 47.2676C544.713 47.2676 544.095 47.2513 543.509 47.2188C542.923 47.1862 542.19 47.1699 541.312 47.1699C540.563 47.1699 539.603 47.1699 538.431 47.1699C537.291 47.1699 535.908 47.1862 534.28 47.2188C534.996 46.6654 535.582 46.112 536.038 45.5586C536.494 45.0052 536.852 44.5007 537.112 44.0449C537.405 43.5241 537.617 43.0195 537.747 42.5312C537.91 41.6523 537.926 40.7409 537.796 39.7969C537.698 38.9831 537.438 38.0879 537.015 37.1113C536.591 36.1022 535.908 35.0931 534.964 34.084C534.02 34.2467 533.222 34.377 532.571 34.4746C531.953 34.5397 531.416 34.6048 530.96 34.6699C530.439 34.735 530.016 34.7839 529.69 34.8164C529.397 34.849 529.072 34.8815 528.714 34.9141C528.421 34.9466 528.095 34.9954 527.737 35.0605C527.412 35.0931 527.103 35.1419 526.81 35.207C526.744 36.6068 526.744 37.8275 526.81 38.8691C526.875 39.8783 526.956 40.7246 527.054 41.4082C527.184 42.222 527.33 42.9219 527.493 43.5078C527.656 44.0938 527.884 44.6634 528.177 45.2168C528.405 45.6725 528.698 46.1608 529.056 46.6816C529.414 47.1699 529.821 47.5768 530.276 47.9023C529.43 47.9023 528.616 47.9023 527.835 47.9023C527.086 47.9023 526.403 47.8861 525.784 47.8535C525.068 47.8535 524.384 47.8372 523.733 47.8047C523.082 47.7721 522.35 47.7559 521.536 47.7559C520.853 47.7559 520.039 47.7559 519.095 47.7559C518.183 47.7559 517.19 47.7721 516.116 47.8047C516.963 46.9258 517.63 46.1771 518.118 45.5586C518.606 44.9401 518.981 44.4193 519.241 43.9961C519.534 43.5404 519.713 43.1497 519.778 42.8242C519.843 42.3034 519.892 41.3757 519.925 40.041C519.99 38.6738 520.039 37.1113 520.071 35.3535C520.104 33.5957 520.12 31.7565 520.12 29.8359C520.12 27.9154 520.104 26.125 520.071 24.4648C520.039 22.7721 520.006 21.3236 519.974 20.1191C519.941 18.9147 519.909 18.1497 519.876 17.8242C519.778 17.2383 519.567 16.6523 519.241 16.0664C518.981 15.5456 518.606 14.9596 518.118 14.3086C517.63 13.6576 516.963 13.0065 516.116 12.3555ZM534.573 29.543C534.899 29.3477 535.175 29.1523 535.403 28.957C535.631 28.7617 535.826 28.4525 535.989 28.0293C536.152 27.5736 536.282 26.9388 536.38 26.125C536.51 25.3112 536.657 24.2044 536.819 22.8047C536.95 21.4049 536.852 20.2493 536.526 19.3379C536.233 18.4264 535.826 17.7103 535.306 17.1895C534.817 16.6361 534.264 16.2617 533.646 16.0664C533.06 15.8385 532.539 15.7246 532.083 15.7246C531.172 15.7246 530.276 16.0013 529.397 16.5547C528.519 17.1081 527.851 17.8568 527.396 18.8008C527.233 19.224 527.086 19.9238 526.956 20.9004C526.858 21.7467 526.793 22.9186 526.761 24.416C526.728 25.9134 526.777 27.8828 526.907 30.3242C528.144 30.5195 529.235 30.6009 530.179 30.5684C531.123 30.5033 531.92 30.3893 532.571 30.2266C533.353 30.0638 534.02 29.8359 534.573 29.543ZM567.19 11.1836C568.948 11.2487 570.722 11.5742 572.513 12.1602C574.336 12.7135 576.012 13.625 577.542 14.8945C579.072 16.1315 580.374 17.7428 581.448 19.7285C582.522 21.6816 583.19 24.0742 583.45 26.9062C583.678 29.2174 583.385 31.5124 582.571 33.791C581.79 36.0371 580.7 38.1042 579.3 39.9922C577.9 41.8802 576.289 43.4915 574.466 44.8262C572.643 46.1283 570.82 46.9909 568.997 47.4141C567.89 47.6745 566.67 47.707 565.335 47.5117C564.033 47.2839 562.698 46.877 561.331 46.291C559.996 45.6725 558.678 44.8913 557.376 43.9473C556.106 43.0033 554.951 41.929 553.909 40.7246C552.868 39.4876 551.989 38.153 551.272 36.7207C550.589 35.2884 550.166 33.791 550.003 32.2285C549.84 30.9264 549.824 29.4941 549.954 27.9316C550.117 26.3366 550.426 24.7578 550.882 23.1953C551.37 21.6003 552.037 20.0703 552.884 18.6055C553.763 17.1081 554.869 15.806 556.204 14.6992C557.539 13.5599 559.101 12.681 560.892 12.0625C562.715 11.4115 564.814 11.1185 567.19 11.1836ZM558.45 30.959C557.994 34.4421 558.32 37.2415 559.427 39.3574C560.566 41.4733 562.275 42.7591 564.554 43.2148C565.66 43.4427 566.718 43.2148 567.728 42.5312C568.769 41.8151 569.713 40.7897 570.56 39.4551C571.406 38.1204 572.138 36.5579 572.757 34.7676C573.375 32.9772 573.831 31.1055 574.124 29.1523C574.417 27.1992 574.433 25.4414 574.173 23.8789C573.945 22.2839 573.538 20.9329 572.952 19.8262C572.366 18.6868 571.65 17.8079 570.804 17.1895C569.99 16.571 569.144 16.2292 568.265 16.1641C566.735 16.0664 565.4 16.4733 564.261 17.3848C563.121 18.2637 562.161 19.4193 561.38 20.8516C560.599 22.2839 559.964 23.8952 559.476 25.6855C559.02 27.4759 558.678 29.2337 558.45 30.959ZM584.524 13.6738C585.501 13.8691 586.331 14.0156 587.015 14.1133C587.698 14.2109 588.268 14.2923 588.724 14.3574C589.244 14.4225 589.684 14.4551 590.042 14.4551C590.4 14.4551 590.888 14.4388 591.507 14.4062C592.06 14.3737 592.76 14.3574 593.606 14.3574C594.453 14.3249 595.527 14.276 596.829 14.2109C596.08 14.7318 595.478 15.1712 595.022 15.5293C594.567 15.8874 594.225 16.1966 593.997 16.457C593.704 16.75 593.525 16.9941 593.46 17.1895C593.395 17.3197 593.33 17.8079 593.265 18.6543C593.2 19.4681 593.134 20.5098 593.069 21.7793C593.037 23.0163 593.037 24.416 593.069 25.9785C593.102 27.5085 593.183 29.071 593.313 30.666C593.476 32.2611 593.704 33.8073 593.997 35.3047C594.29 36.7695 594.681 38.0553 595.169 39.1621C595.69 40.2689 596.308 41.1315 597.024 41.75C597.773 42.3685 598.668 42.5964 599.71 42.4336C601.077 42.2383 602.184 41.571 603.03 40.4316C603.877 39.2923 604.511 37.9089 604.935 36.2812C605.39 34.6536 605.667 32.9121 605.765 31.0566C605.895 29.1686 605.911 27.4108 605.813 25.7832C605.748 24.123 605.618 22.6908 605.423 21.4863C605.228 20.2819 605.049 19.5332 604.886 19.2402C604.69 18.9147 604.43 18.5404 604.104 18.1172C603.844 17.7591 603.502 17.3522 603.079 16.8965C602.656 16.4082 602.168 15.8874 601.614 15.334C602.623 15.3665 603.535 15.3991 604.349 15.4316C605.162 15.4316 605.846 15.4479 606.399 15.4805C607.05 15.513 607.636 15.5456 608.157 15.5781C608.678 15.6107 609.329 15.6595 610.11 15.7246C610.761 15.7897 611.591 15.8548 612.601 15.9199C613.642 15.985 614.879 16.0827 616.312 16.2129C615.758 16.3431 615.302 16.5221 614.944 16.75C614.619 16.9779 614.358 17.222 614.163 17.4824C613.935 17.7754 613.772 18.0684 613.675 18.3613C613.577 18.6217 613.496 19.403 613.431 20.7051C613.398 21.9746 613.333 23.5208 613.235 25.3438C613.17 27.1341 613.056 29.0872 612.894 31.2031C612.731 33.2865 612.47 35.2721 612.112 37.1602C611.787 39.0482 611.347 40.7246 610.794 42.1895C610.273 43.6543 609.59 44.6634 608.743 45.2168C607.506 46.0306 606.204 46.6165 604.837 46.9746C603.47 47.3001 602.086 47.4792 600.687 47.5117C599.287 47.5117 597.903 47.3978 596.536 47.1699C595.201 46.9095 593.916 46.6003 592.679 46.2422C591.409 45.8516 590.351 44.9727 589.505 43.6055C588.691 42.2383 588.04 40.627 587.552 38.7715C587.096 36.8835 586.754 34.8652 586.526 32.7168C586.331 30.5358 586.201 28.4362 586.136 26.418C586.103 24.3997 586.103 22.5768 586.136 20.9492C586.201 19.2891 586.25 18.0358 586.282 17.1895C586.282 16.7663 586.217 16.3594 586.087 15.9688C585.989 15.6107 585.81 15.2363 585.55 14.8457C585.322 14.4225 584.98 14.0319 584.524 13.6738ZM615.286 13.3809C616.751 13.6413 617.955 13.8203 618.899 13.918C619.843 14.0156 620.608 14.097 621.194 14.1621C621.878 14.2272 622.415 14.2435 622.806 14.2109H624.271C624.791 14.2109 625.442 14.2109 626.224 14.2109C627.037 14.1784 628.047 14.1621 629.251 14.1621C629.935 15.7572 630.553 17.222 631.106 18.5566C631.692 19.8913 632.181 21.0306 632.571 21.9746C633.027 23.1139 633.45 24.1393 633.841 25.0508C634.297 26.1901 634.785 27.4434 635.306 28.8105C635.826 30.1777 636.299 31.4635 636.722 32.668C637.177 33.8724 637.552 34.8652 637.845 35.6465C638.138 36.4277 638.284 36.7858 638.284 36.7207C638.284 36.6882 638.3 36.3626 638.333 35.7441C638.366 35.0931 638.398 34.2956 638.431 33.3516C638.463 32.375 638.496 31.3171 638.528 30.1777C638.593 29.0059 638.626 27.8828 638.626 26.8086C638.659 25.7018 638.675 24.6927 638.675 23.7812C638.675 22.8698 638.642 22.1862 638.577 21.7305C638.479 21.1771 638.284 20.5423 637.991 19.8262C637.731 19.2077 637.373 18.4753 636.917 17.6289C636.461 16.75 635.826 15.7572 635.013 14.6504C636.347 14.6829 637.438 14.6992 638.284 14.6992C639.131 14.6992 639.814 14.6992 640.335 14.6992C640.921 14.6992 641.377 14.6829 641.702 14.6504C642.125 14.6504 642.646 14.6178 643.265 14.5527C643.818 14.4876 644.502 14.4388 645.315 14.4062C646.162 14.3411 647.203 14.2598 648.44 14.1621C647.724 14.8132 647.155 15.4316 646.731 16.0176C646.308 16.6035 645.966 17.1243 645.706 17.5801C645.413 18.1009 645.218 18.5892 645.12 19.0449C644.99 19.6309 644.876 20.5911 644.778 21.9258C644.713 23.2279 644.632 24.6927 644.534 26.3203C644.469 27.9479 644.404 29.6406 644.339 31.3984C644.274 33.1562 644.209 34.7676 644.144 36.2324C644.144 37.3392 644.111 38.5273 644.046 39.7969C643.981 40.8711 643.916 42.0918 643.851 43.459C643.785 44.7936 643.704 46.1445 643.606 47.5117L639.261 47.6094C637.991 45.3633 636.917 43.4427 636.038 41.8477C635.192 40.2201 634.492 38.8854 633.938 37.8438C633.32 36.6393 632.799 35.6302 632.376 34.8164C632.018 34.0352 631.546 33.14 630.96 32.1309C630.472 31.2845 629.853 30.2428 629.104 29.0059C628.388 27.7689 627.526 26.3529 626.517 24.7578C626.419 27.0039 626.37 28.9245 626.37 30.5195C626.403 32.082 626.451 33.3841 626.517 34.4258C626.614 35.6302 626.728 36.6393 626.858 37.4531C627.021 38.2344 627.249 39.1133 627.542 40.0898C627.802 40.9362 628.112 41.929 628.47 43.0684C628.86 44.2077 629.332 45.4935 629.886 46.9258C627.965 46.8281 626.533 46.7793 625.589 46.7793H624.124C623.668 46.7793 623.05 46.8281 622.269 46.9258C621.618 46.9909 620.722 47.0885 619.583 47.2188C618.476 47.349 617.093 47.528 615.433 47.7559C616.214 46.8118 616.832 45.9492 617.288 45.168C617.776 44.3542 618.151 43.6706 618.411 43.1172C618.737 42.4661 618.965 41.8965 619.095 41.4082C619.192 40.8874 619.257 39.9922 619.29 38.7227C619.323 37.4206 619.323 35.9557 619.29 34.3281C619.29 32.668 619.257 30.9264 619.192 29.1035C619.16 27.2806 619.111 25.5879 619.046 24.0254C618.981 22.4629 618.899 21.1283 618.802 20.0215C618.737 18.9147 618.688 18.2311 618.655 17.9707C618.558 17.5475 618.362 17.0918 618.069 16.6035C617.809 16.1803 617.467 15.7083 617.044 15.1875C616.621 14.6341 616.035 14.0319 615.286 13.3809ZM646.683 13.1855C647.822 13.3483 648.815 13.4785 649.661 13.5762C650.507 13.6738 651.207 13.7552 651.761 13.8203C652.412 13.8854 652.965 13.9342 653.421 13.9668C653.942 14.0319 654.576 13.9993 655.325 13.8691C656.106 13.7389 656.937 13.6087 657.815 13.4785C658.694 13.3158 659.606 13.1855 660.55 13.0879C661.494 12.9902 662.405 12.9902 663.284 13.0879C663.87 13.153 664.619 13.2832 665.53 13.4785C666.442 13.6738 667.402 13.9831 668.411 14.4062C669.453 14.8294 670.494 15.3828 671.536 16.0664C672.578 16.75 673.522 17.6126 674.368 18.6543C675.215 19.696 675.914 20.9329 676.468 22.3652C677.021 23.7975 677.33 25.474 677.396 27.3945C677.493 30.2591 677.233 32.8633 676.614 35.207C675.996 37.5508 675.035 39.5527 673.733 41.2129C672.464 42.873 670.853 44.1751 668.899 45.1191C666.946 46.0632 664.668 46.584 662.063 46.6816C660.078 46.8444 658.125 46.9909 656.204 47.1211C655.39 47.1862 654.528 47.235 653.616 47.2676C652.737 47.3001 651.858 47.3327 650.979 47.3652C650.101 47.3652 649.254 47.349 648.44 47.3164C647.627 47.2839 646.878 47.235 646.194 47.1699C646.943 46.8118 647.545 46.4538 648.001 46.0957C648.489 45.7376 648.864 45.4284 649.124 45.168C649.417 44.8424 649.629 44.5495 649.759 44.2891C649.824 43.931 649.922 43.2311 650.052 42.1895C650.149 41.3105 650.28 40.0573 650.442 38.4297C650.605 36.8021 650.8 34.5885 651.028 31.7891L651.321 28.3223C651.484 26.1738 651.549 24.416 651.517 23.0488C651.517 21.6816 651.484 20.6074 651.419 19.8262C651.321 18.9147 651.191 18.2474 651.028 17.8242C650.898 17.4661 650.654 17.043 650.296 16.5547C649.97 16.1641 649.515 15.6921 648.929 15.1387C648.375 14.5527 647.627 13.9017 646.683 13.1855ZM656.985 31.1543C657.05 34.0514 657.197 36.2812 657.425 37.8438C657.685 39.3737 657.962 40.513 658.255 41.2617C658.613 42.1081 659.004 42.6126 659.427 42.7754C660.045 42.7754 660.745 42.515 661.526 41.9941C662.308 41.4408 663.073 40.6107 663.821 39.5039C664.603 38.3971 665.302 37.0137 665.921 35.3535C666.572 33.6934 667.044 31.7565 667.337 29.543C667.63 27.3294 667.549 25.3763 667.093 23.6836C666.637 21.9909 666.035 20.5749 665.286 19.4355C664.537 18.2637 663.772 17.3848 662.991 16.7988C662.21 16.1803 661.624 15.8711 661.233 15.8711C660.778 15.8711 660.371 16.0013 660.013 16.2617C659.655 16.4896 659.15 17.0267 658.499 17.873C658.174 18.3288 657.881 18.9798 657.62 19.8262C657.392 20.5749 657.197 21.5677 657.034 22.8047C656.871 24.0417 656.823 25.6367 656.888 27.5898L656.985 31.1543ZM702.835 14.9434C704.463 15.041 705.83 15.1224 706.937 15.1875C708.076 15.2201 709.02 15.2526 709.769 15.2852C710.615 15.3177 711.331 15.3177 711.917 15.2852C712.503 15.2526 713.3 15.1712 714.31 15.041C715.156 14.9434 716.279 14.7969 717.679 14.6016C719.111 14.3737 720.885 14.0807 723.001 13.7227C722.252 14.4714 721.666 15.1549 721.243 15.7734C720.853 16.3594 720.543 16.8639 720.315 17.2871C720.055 17.8079 719.876 18.2474 719.778 18.6055C719.713 18.931 719.778 19.7448 719.974 21.0469C720.169 22.349 720.446 23.8952 720.804 25.6855C721.162 27.4434 721.552 29.3314 721.976 31.3496C722.399 33.3353 722.822 35.207 723.245 36.9648C723.668 38.6901 724.043 40.1712 724.368 41.4082C724.726 42.6126 724.987 43.3288 725.149 43.5566C725.638 44.2402 725.947 44.696 726.077 44.9238C726.207 45.1191 726.435 45.2982 726.761 45.4609C726.891 45.526 727.103 45.6237 727.396 45.7539C727.656 45.8841 727.998 46.0469 728.421 46.2422C728.877 46.4375 729.446 46.6654 730.13 46.9258C728.86 46.9909 727.77 47.0397 726.858 47.0723C725.947 47.0723 725.198 47.0885 724.612 47.1211C723.929 47.1536 723.343 47.1862 722.854 47.2188C722.366 47.2188 721.78 47.2513 721.097 47.3164C720.511 47.3815 719.746 47.4466 718.802 47.5117C717.89 47.5768 716.816 47.6419 715.579 47.707C716.23 47.2513 716.751 46.8444 717.142 46.4863C717.565 46.0957 717.89 45.7702 718.118 45.5098C718.379 45.1842 718.558 44.8913 718.655 44.6309C718.72 44.3379 718.769 43.8984 718.802 43.3125C718.834 42.7917 718.834 42.1081 718.802 41.2617C718.769 40.3828 718.688 39.2435 718.558 37.8438L705.716 39.1621C705.39 39.7155 705.146 40.2038 704.983 40.627C704.821 41.0176 704.707 41.3594 704.642 41.6523C704.544 42.0104 704.511 42.3034 704.544 42.5312C704.609 42.7917 704.723 43.1009 704.886 43.459C705.049 43.7845 705.276 44.1751 705.569 44.6309C705.895 45.054 706.367 45.5586 706.985 46.1445C706.172 46.112 705.341 46.0957 704.495 46.0957C703.649 46.0957 702.868 46.112 702.151 46.1445C701.305 46.1771 700.475 46.2096 699.661 46.2422C698.847 46.2747 697.92 46.3236 696.878 46.3887C695.999 46.4538 694.974 46.5352 693.802 46.6328C692.597 46.6979 691.312 46.7956 689.944 46.9258C690.791 46.5352 691.507 46.1445 692.093 45.7539C692.679 45.3307 693.167 44.9401 693.558 44.582C694.013 44.1914 694.404 43.8171 694.729 43.459C694.957 43.1335 695.413 42.3848 696.097 41.2129C696.78 40.0085 697.545 38.5924 698.392 36.9648C699.271 35.3372 700.182 33.5957 701.126 31.7402C702.103 29.8848 702.981 28.1432 703.763 26.5156C704.544 24.8555 705.179 23.4232 705.667 22.2188C706.155 21.0143 706.399 20.2331 706.399 19.875C706.334 19.4518 706.172 18.9798 705.911 18.459C705.683 18.0033 705.325 17.4824 704.837 16.8965C704.381 16.3105 703.714 15.6595 702.835 14.9434ZM717.972 34.2305C717.776 33.0911 717.597 32.1146 717.435 31.3008C717.272 30.4544 717.142 29.7546 717.044 29.2012C716.914 28.5501 716.816 27.9805 716.751 27.4922C716.653 27.0365 716.539 26.4505 716.409 25.7344C716.279 25.1159 716.116 24.3509 715.921 23.4395C715.758 22.4954 715.547 21.3724 715.286 20.0703C713.431 23.7812 711.982 26.6621 710.94 28.7129C709.931 30.7311 709.199 32.2122 708.743 33.1562C708.19 34.263 707.881 34.9141 707.815 35.1094L717.972 34.2305ZM725.833 12.3555C726.875 12.5182 727.819 12.6647 728.665 12.7949C729.511 12.8926 730.244 12.974 730.862 13.0391C731.578 13.1367 732.213 13.2181 732.767 13.2832C733.45 13.3809 734.476 13.2669 735.843 12.9414C737.21 12.5833 738.707 12.2578 740.335 11.9648C741.995 11.6393 743.688 11.4603 745.413 11.4277C747.138 11.3626 748.717 11.6719 750.149 12.3555C751.582 13.0391 752.754 13.7227 753.665 14.4062C754.576 15.0898 755.293 15.8223 755.813 16.6035C756.367 17.3522 756.757 18.1497 756.985 18.9961C757.213 19.8424 757.343 20.7702 757.376 21.7793C757.343 23.2767 756.985 24.7253 756.302 26.125C756.009 26.7109 755.618 27.3294 755.13 27.9805C754.674 28.599 754.104 29.2012 753.421 29.7871C752.737 30.373 751.924 30.9264 750.979 31.4473C750.068 31.9681 748.994 32.4238 747.757 32.8145C748.961 33.1725 749.954 33.5957 750.735 34.084C751.549 34.5723 752.2 35.028 752.688 35.4512C753.274 35.972 753.714 36.4766 754.007 36.9648C754.365 37.6484 754.609 38.2344 754.739 38.7227C754.869 39.2109 754.951 39.6829 754.983 40.1387C755.049 40.5618 755.13 41.0013 755.228 41.457C755.325 41.9128 755.537 42.4336 755.862 43.0195C756.123 43.4753 756.432 43.9473 756.79 44.4355C757.116 44.8587 757.49 45.3145 757.913 45.8027C758.369 46.291 758.922 46.763 759.573 47.2188C758.662 47.2513 757.815 47.2676 757.034 47.2676C756.285 47.2676 755.634 47.2676 755.081 47.2676C754.43 47.2676 753.812 47.2513 753.226 47.2188C752.64 47.1862 751.907 47.1699 751.028 47.1699C750.28 47.1699 749.319 47.1699 748.147 47.1699C747.008 47.1699 745.625 47.1862 743.997 47.2188C744.713 46.6654 745.299 46.112 745.755 45.5586C746.211 45.0052 746.569 44.5007 746.829 44.0449C747.122 43.5241 747.334 43.0195 747.464 42.5312C747.627 41.6523 747.643 40.7409 747.513 39.7969C747.415 38.9831 747.155 38.0879 746.731 37.1113C746.308 36.1022 745.625 35.0931 744.681 34.084C743.737 34.2467 742.939 34.377 742.288 34.4746C741.67 34.5397 741.132 34.6048 740.677 34.6699C740.156 34.735 739.733 34.7839 739.407 34.8164C739.114 34.849 738.789 34.8815 738.431 34.9141C738.138 34.9466 737.812 34.9954 737.454 35.0605C737.129 35.0931 736.819 35.1419 736.526 35.207C736.461 36.6068 736.461 37.8275 736.526 38.8691C736.591 39.8783 736.673 40.7246 736.771 41.4082C736.901 42.222 737.047 42.9219 737.21 43.5078C737.373 44.0938 737.601 44.6634 737.894 45.2168C738.121 45.6725 738.414 46.1608 738.772 46.6816C739.131 47.1699 739.537 47.5768 739.993 47.9023C739.147 47.9023 738.333 47.9023 737.552 47.9023C736.803 47.9023 736.119 47.8861 735.501 47.8535C734.785 47.8535 734.101 47.8372 733.45 47.8047C732.799 47.7721 732.067 47.7559 731.253 47.7559C730.569 47.7559 729.756 47.7559 728.812 47.7559C727.9 47.7559 726.907 47.7721 725.833 47.8047C726.679 46.9258 727.347 46.1771 727.835 45.5586C728.323 44.9401 728.698 44.4193 728.958 43.9961C729.251 43.5404 729.43 43.1497 729.495 42.8242C729.56 42.3034 729.609 41.3757 729.642 40.041C729.707 38.6738 729.756 37.1113 729.788 35.3535C729.821 33.5957 729.837 31.7565 729.837 29.8359C729.837 27.9154 729.821 26.125 729.788 24.4648C729.756 22.7721 729.723 21.3236 729.69 20.1191C729.658 18.9147 729.625 18.1497 729.593 17.8242C729.495 17.2383 729.284 16.6523 728.958 16.0664C728.698 15.5456 728.323 14.9596 727.835 14.3086C727.347 13.6576 726.679 13.0065 725.833 12.3555ZM744.29 29.543C744.616 29.3477 744.892 29.1523 745.12 28.957C745.348 28.7617 745.543 28.4525 745.706 28.0293C745.869 27.5736 745.999 26.9388 746.097 26.125C746.227 25.3112 746.373 24.2044 746.536 22.8047C746.666 21.4049 746.569 20.2493 746.243 19.3379C745.95 18.4264 745.543 17.7103 745.022 17.1895C744.534 16.6361 743.981 16.2617 743.362 16.0664C742.776 15.8385 742.256 15.7246 741.8 15.7246C740.888 15.7246 739.993 16.0013 739.114 16.5547C738.235 17.1081 737.568 17.8568 737.112 18.8008C736.95 19.224 736.803 19.9238 736.673 20.9004C736.575 21.7467 736.51 22.9186 736.478 24.416C736.445 25.9134 736.494 27.8828 736.624 30.3242C737.861 30.5195 738.951 30.6009 739.896 30.5684C740.84 30.5033 741.637 30.3893 742.288 30.2266C743.069 30.0638 743.737 29.8359 744.29 29.543ZM756.595 14.6504C758.873 14.7155 760.761 14.7643 762.259 14.7969C763.789 14.7969 765.026 14.7969 765.97 14.7969H768.558H783.108C783.174 15.4479 783.222 16.0827 783.255 16.7012C783.32 17.2871 783.353 17.8079 783.353 18.2637C783.353 18.8171 783.336 19.3216 783.304 19.7773C783.271 20.2331 783.222 20.7214 783.157 21.2422C783.092 21.6979 783.027 22.1862 782.962 22.707C782.897 23.2279 782.783 23.765 782.62 24.3184C782.164 22.5605 781.546 21.2259 780.765 20.3145C780.016 19.403 779.251 18.7357 778.47 18.3125C777.558 17.8242 776.598 17.5638 775.589 17.5312C774.254 17.5964 773.213 17.7103 772.464 17.873C771.715 18.0358 771.129 18.2637 770.706 18.5566C770.283 18.8496 769.957 19.1914 769.729 19.582C769.534 19.9401 769.323 20.347 769.095 20.8027C768.899 21.1934 768.72 21.7956 768.558 22.6094C768.395 23.293 768.232 24.2207 768.069 25.3926C767.939 26.5645 767.793 28.0781 767.63 29.9336C768.509 29.6732 769.209 29.429 769.729 29.2012C770.283 28.9733 770.722 28.778 771.048 28.6152C771.406 28.4199 771.666 28.2409 771.829 28.0781C771.959 27.8828 772.155 27.5247 772.415 27.0039C772.61 26.5482 772.871 25.9297 773.196 25.1484C773.554 24.3672 773.978 23.293 774.466 21.9258C774.531 23.4232 774.563 24.6764 774.563 25.6855C774.563 26.6621 774.58 27.4596 774.612 28.0781C774.612 28.7943 774.629 29.3639 774.661 29.7871V31.6426C774.661 32.3262 774.661 33.2539 774.661 34.4258C774.694 35.5651 774.743 37.0137 774.808 38.7715C774.417 37.5671 774.059 36.623 773.733 35.9395C773.44 35.2233 773.18 34.6862 772.952 34.3281C772.692 33.9049 772.464 33.612 772.269 33.4492C772.041 33.3841 771.731 33.319 771.341 33.2539C770.983 33.2214 770.527 33.2051 769.974 33.2051C769.453 33.2051 768.785 33.2865 767.972 33.4492C767.874 35.2396 767.858 36.6882 767.923 37.7949C768.021 38.8691 768.151 39.6992 768.313 40.2852C768.476 40.9688 768.672 41.457 768.899 41.75C769.192 42.043 769.778 42.2871 770.657 42.4824C771.536 42.6452 772.529 42.7103 773.636 42.6777C774.775 42.6126 775.931 42.4173 777.103 42.0918C778.274 41.7663 779.316 41.2292 780.228 40.4805C780.911 39.862 781.644 39.0807 782.425 38.1367C783.076 37.3229 783.792 36.2975 784.573 35.0605C785.387 33.8236 786.185 32.3262 786.966 30.5684C786.836 32.0332 786.738 33.2539 786.673 34.2305C786.64 35.1745 786.591 35.9395 786.526 36.5254C786.461 37.209 786.412 37.7298 786.38 38.0879C786.38 38.4785 786.331 39.0319 786.233 39.748C786.168 40.3665 786.054 41.2129 785.892 42.2871C785.761 43.3288 785.582 44.6634 785.354 46.291C783.825 46.3236 782.376 46.3561 781.009 46.3887C779.642 46.3887 778.437 46.4049 777.396 46.4375C776.159 46.4701 775.019 46.5026 773.978 46.5352C772.903 46.5352 771.715 46.584 770.413 46.6816C769.274 46.7467 767.923 46.8444 766.36 46.9746C764.83 47.1048 763.138 47.2839 761.282 47.5117C761.445 45.2982 761.559 43.2148 761.624 41.2617C761.722 39.276 761.787 37.5345 761.819 36.0371C761.852 34.2793 761.852 32.6517 761.819 31.1543C761.982 27.4108 761.917 24.3835 761.624 22.0723C761.331 19.7611 760.989 18.2799 760.599 17.6289C760.403 17.401 760.127 17.1243 759.769 16.7988C759.476 16.5384 759.069 16.2292 758.548 15.8711C758.027 15.513 757.376 15.1061 756.595 14.6504ZM786.233 13.3809C787.698 13.6413 788.903 13.8203 789.847 13.918C790.791 14.0156 791.556 14.097 792.142 14.1621C792.825 14.2272 793.362 14.2435 793.753 14.2109H795.218C795.739 14.2109 796.39 14.2109 797.171 14.2109C797.985 14.1784 798.994 14.1621 800.198 14.1621C800.882 15.7572 801.5 17.222 802.054 18.5566C802.64 19.8913 803.128 21.0306 803.519 21.9746C803.974 23.1139 804.397 24.1393 804.788 25.0508C805.244 26.1901 805.732 27.4434 806.253 28.8105C806.774 30.1777 807.246 31.4635 807.669 32.668C808.125 33.8724 808.499 34.8652 808.792 35.6465C809.085 36.4277 809.231 36.7858 809.231 36.7207C809.231 36.6882 809.248 36.3626 809.28 35.7441C809.313 35.0931 809.345 34.2956 809.378 33.3516C809.41 32.375 809.443 31.3171 809.476 30.1777C809.541 29.0059 809.573 27.8828 809.573 26.8086C809.606 25.7018 809.622 24.6927 809.622 23.7812C809.622 22.8698 809.59 22.1862 809.524 21.7305C809.427 21.1771 809.231 20.5423 808.938 19.8262C808.678 19.2077 808.32 18.4753 807.864 17.6289C807.409 16.75 806.774 15.7572 805.96 14.6504C807.295 14.6829 808.385 14.6992 809.231 14.6992C810.078 14.6992 810.761 14.6992 811.282 14.6992C811.868 14.6992 812.324 14.6829 812.649 14.6504C813.073 14.6504 813.593 14.6178 814.212 14.5527C814.765 14.4876 815.449 14.4388 816.263 14.4062C817.109 14.3411 818.151 14.2598 819.388 14.1621C818.672 14.8132 818.102 15.4316 817.679 16.0176C817.256 16.6035 816.914 17.1243 816.653 17.5801C816.36 18.1009 816.165 18.5892 816.067 19.0449C815.937 19.6309 815.823 20.5911 815.726 21.9258C815.66 23.2279 815.579 24.6927 815.481 26.3203C815.416 27.9479 815.351 29.6406 815.286 31.3984C815.221 33.1562 815.156 34.7676 815.091 36.2324C815.091 37.3392 815.058 38.5273 814.993 39.7969C814.928 40.8711 814.863 42.0918 814.798 43.459C814.733 44.7936 814.651 46.1445 814.554 47.5117L810.208 47.6094C808.938 45.3633 807.864 43.4427 806.985 41.8477C806.139 40.2201 805.439 38.8854 804.886 37.8438C804.267 36.6393 803.746 35.6302 803.323 34.8164C802.965 34.0352 802.493 33.14 801.907 32.1309C801.419 31.2845 800.8 30.2428 800.052 29.0059C799.336 27.7689 798.473 26.3529 797.464 24.7578C797.366 27.0039 797.317 28.9245 797.317 30.5195C797.35 32.082 797.399 33.3841 797.464 34.4258C797.562 35.6302 797.675 36.6393 797.806 37.4531C797.968 38.2344 798.196 39.1133 798.489 40.0898C798.75 40.9362 799.059 41.929 799.417 43.0684C799.808 44.2077 800.28 45.4935 800.833 46.9258C798.912 46.8281 797.48 46.7793 796.536 46.7793H795.071C794.616 46.7793 793.997 46.8281 793.216 46.9258C792.565 46.9909 791.67 47.0885 790.53 47.2188C789.424 47.349 788.04 47.528 786.38 47.7559C787.161 46.8118 787.78 45.9492 788.235 45.168C788.724 44.3542 789.098 43.6706 789.358 43.1172C789.684 42.4661 789.912 41.8965 790.042 41.4082C790.14 40.8874 790.205 39.9922 790.237 38.7227C790.27 37.4206 790.27 35.9557 790.237 34.3281C790.237 32.668 790.205 30.9264 790.14 29.1035C790.107 27.2806 790.058 25.5879 789.993 24.0254C789.928 22.4629 789.847 21.1283 789.749 20.0215C789.684 18.9147 789.635 18.2311 789.603 17.9707C789.505 17.5475 789.31 17.0918 789.017 16.6035C788.756 16.1803 788.414 15.7083 787.991 15.1875C787.568 14.6341 786.982 14.0319 786.233 13.3809ZM825.589 14.9434C827.216 15.041 828.584 15.1224 829.69 15.1875C830.83 15.2201 831.774 15.2526 832.522 15.2852C833.369 15.3177 834.085 15.3177 834.671 15.2852C835.257 15.2526 836.054 15.1712 837.063 15.041C837.91 14.9434 839.033 14.7969 840.433 14.6016C841.865 14.3737 843.639 14.0807 845.755 13.7227C845.006 14.4714 844.42 15.1549 843.997 15.7734C843.606 16.3594 843.297 16.8639 843.069 17.2871C842.809 17.8079 842.63 18.2474 842.532 18.6055C842.467 18.931 842.532 19.7448 842.728 21.0469C842.923 22.349 843.2 23.8952 843.558 25.6855C843.916 27.4434 844.306 29.3314 844.729 31.3496C845.153 33.3353 845.576 35.207 845.999 36.9648C846.422 38.6901 846.797 40.1712 847.122 41.4082C847.48 42.6126 847.741 43.3288 847.903 43.5566C848.392 44.2402 848.701 44.696 848.831 44.9238C848.961 45.1191 849.189 45.2982 849.515 45.4609C849.645 45.526 849.856 45.6237 850.149 45.7539C850.41 45.8841 850.752 46.0469 851.175 46.2422C851.631 46.4375 852.2 46.6654 852.884 46.9258C851.614 46.9909 850.524 47.0397 849.612 47.0723C848.701 47.0723 847.952 47.0885 847.366 47.1211C846.683 47.1536 846.097 47.1862 845.608 47.2188C845.12 47.2188 844.534 47.2513 843.851 47.3164C843.265 47.3815 842.5 47.4466 841.556 47.5117C840.644 47.5768 839.57 47.6419 838.333 47.707C838.984 47.2513 839.505 46.8444 839.896 46.4863C840.319 46.0957 840.644 45.7702 840.872 45.5098C841.132 45.1842 841.312 44.8913 841.409 44.6309C841.474 44.3379 841.523 43.8984 841.556 43.3125C841.588 42.7917 841.588 42.1081 841.556 41.2617C841.523 40.3828 841.442 39.2435 841.312 37.8438L828.47 39.1621C828.144 39.7155 827.9 40.2038 827.737 40.627C827.575 41.0176 827.461 41.3594 827.396 41.6523C827.298 42.0104 827.265 42.3034 827.298 42.5312C827.363 42.7917 827.477 43.1009 827.64 43.459C827.802 43.7845 828.03 44.1751 828.323 44.6309C828.649 45.054 829.121 45.5586 829.739 46.1445C828.925 46.112 828.095 46.0957 827.249 46.0957C826.403 46.0957 825.621 46.112 824.905 46.1445C824.059 46.1771 823.229 46.2096 822.415 46.2422C821.601 46.2747 820.674 46.3236 819.632 46.3887C818.753 46.4538 817.728 46.5352 816.556 46.6328C815.351 46.6979 814.065 46.7956 812.698 46.9258C813.545 46.5352 814.261 46.1445 814.847 45.7539C815.433 45.3307 815.921 44.9401 816.312 44.582C816.767 44.1914 817.158 43.8171 817.483 43.459C817.711 43.1335 818.167 42.3848 818.851 41.2129C819.534 40.0085 820.299 38.5924 821.146 36.9648C822.024 35.3372 822.936 33.5957 823.88 31.7402C824.856 29.8848 825.735 28.1432 826.517 26.5156C827.298 24.8555 827.933 23.4232 828.421 22.2188C828.909 21.0143 829.153 20.2331 829.153 19.875C829.088 19.4518 828.925 18.9798 828.665 18.459C828.437 18.0033 828.079 17.4824 827.591 16.8965C827.135 16.3105 826.468 15.6595 825.589 14.9434ZM840.726 34.2305C840.53 33.0911 840.351 32.1146 840.188 31.3008C840.026 30.4544 839.896 29.7546 839.798 29.2012C839.668 28.5501 839.57 27.9805 839.505 27.4922C839.407 27.0365 839.293 26.4505 839.163 25.7344C839.033 25.1159 838.87 24.3509 838.675 23.4395C838.512 22.4954 838.3 21.3724 838.04 20.0703C836.185 23.7812 834.736 26.6621 833.694 28.7129C832.685 30.7311 831.953 32.2122 831.497 33.1562C830.944 34.263 830.634 34.9141 830.569 35.1094L840.726 34.2305Z" fill="#CCA855"/>
<path d="M401.443 84.7998H398.443C397.293 84.7998 396.384 84.4748 395.718 83.8248C395.068 83.1748 394.743 82.2665 394.743 81.0998V72.4248C394.743 71.2581 395.068 70.3498 395.718 69.6998C396.384 69.0498 397.293 68.7248 398.443 68.7248H401.443C402.593 68.7248 403.493 69.0498 404.143 69.6998C404.809 70.3498 405.143 71.2581 405.143 72.4248V73.6498C405.143 73.8831 405.026 73.9998 404.793 73.9998H403.668C403.434 73.9998 403.318 73.8831 403.318 73.6498V72.4998C403.318 71.0498 402.618 70.3248 401.218 70.3248H398.643C397.259 70.3248 396.568 71.0498 396.568 72.4998V81.0248C396.568 82.4748 397.259 83.1998 398.643 83.1998H401.218C402.618 83.1998 403.318 82.4748 403.318 81.0248V79.8748C403.318 79.6415 403.434 79.5248 403.668 79.5248H404.793C405.026 79.5248 405.143 79.6415 405.143 79.8748V81.0998C405.143 82.2665 404.809 83.1748 404.143 83.8248C403.493 84.4748 402.593 84.7998 401.443 84.7998ZM411.393 84.7998H410.268C410.035 84.7998 409.918 84.6831 409.918 84.4498V69.0748C409.918 68.8415 410.035 68.7248 410.268 68.7248H411.393C411.626 68.7248 411.743 68.8415 411.743 69.0748V75.6498C411.743 75.7998 411.826 75.8748 411.993 75.8748H418.193C418.36 75.8748 418.443 75.7998 418.443 75.6498V69.0748C418.443 68.8415 418.56 68.7248 418.793 68.7248H419.918C420.151 68.7248 420.268 68.8415 420.268 69.0748V84.4498C420.268 84.6831 420.151 84.7998 419.918 84.7998H418.793C418.56 84.7998 418.443 84.6831 418.443 84.4498V77.6998C418.443 77.5498 418.36 77.4748 418.193 77.4748H411.993C411.826 77.4748 411.743 77.5498 411.743 77.6998V84.4498C411.743 84.6831 411.626 84.7998 411.393 84.7998ZM429.275 83.1998H431.825C433.225 83.1998 433.925 82.4748 433.925 81.0248V72.4998C433.925 71.0498 433.225 70.3248 431.825 70.3248H429.275C427.891 70.3248 427.2 71.0498 427.2 72.4998V81.0248C427.2 82.4748 427.891 83.1998 429.275 83.1998ZM432.05 84.7998H429.075C427.925 84.7998 427.016 84.4748 426.35 83.8248C425.7 83.1748 425.375 82.2665 425.375 81.0998V72.4248C425.375 71.2581 425.7 70.3498 426.35 69.6998C427.016 69.0498 427.925 68.7248 429.075 68.7248H432.05C433.2 68.7248 434.1 69.0581 434.75 69.7248C435.416 70.3748 435.75 71.2748 435.75 72.4248V81.0998C435.75 82.2498 435.416 83.1581 434.75 83.8248C434.1 84.4748 433.2 84.7998 432.05 84.7998ZM444.493 83.1998H447.043C448.443 83.1998 449.143 82.4748 449.143 81.0248V72.4998C449.143 71.0498 448.443 70.3248 447.043 70.3248H444.493C443.11 70.3248 442.418 71.0498 442.418 72.4998V81.0248C442.418 82.4748 443.11 83.1998 444.493 83.1998ZM447.268 84.7998H444.293C443.143 84.7998 442.235 84.4748 441.568 83.8248C440.918 83.1748 440.593 82.2665 440.593 81.0998V72.4248C440.593 71.2581 440.918 70.3498 441.568 69.6998C442.235 69.0498 443.143 68.7248 444.293 68.7248H447.268C448.418 68.7248 449.318 69.0581 449.968 69.7248C450.635 70.3748 450.968 71.2748 450.968 72.4248V81.0998C450.968 82.2498 450.635 83.1581 449.968 83.8248C449.318 84.4748 448.418 84.7998 447.268 84.7998ZM455.886 81.0998V80.2998C455.886 80.0665 456.003 79.9498 456.236 79.9498H457.361C457.595 79.9498 457.711 80.0665 457.711 80.2998V80.9498C457.711 82.4498 458.453 83.1998 459.936 83.1998H462.136C463.62 83.1998 464.361 82.4331 464.361 80.8998V80.0498C464.361 78.8498 463.37 78.0665 461.386 77.6998C460.553 77.5498 459.72 77.3748 458.886 77.1748C458.053 76.9748 457.345 76.5915 456.761 76.0248C456.178 75.4415 455.886 74.6498 455.886 73.6498V72.4248C455.886 71.2748 456.211 70.3748 456.861 69.7248C457.528 69.0581 458.436 68.7248 459.586 68.7248H462.361C463.495 68.7248 464.395 69.0581 465.061 69.7248C465.728 70.3748 466.061 71.2748 466.061 72.4248V73.0498C466.061 73.2998 465.953 73.4248 465.736 73.4248H464.586C464.37 73.4248 464.261 73.2998 464.261 73.0498V72.5998C464.261 71.0831 463.52 70.3248 462.036 70.3248H459.911C458.428 70.3248 457.686 71.1165 457.686 72.6998V73.6998C457.686 74.5498 458.245 75.1331 459.361 75.4498C459.861 75.5831 460.411 75.7081 461.011 75.8248C461.611 75.9248 462.211 76.0665 462.811 76.2498C463.428 76.4165 463.986 76.6331 464.486 76.8998C464.986 77.1498 465.386 77.5415 465.686 78.0748C466.003 78.5915 466.161 79.2248 466.161 79.9748V81.0998C466.161 82.2498 465.828 83.1581 465.161 83.8248C464.495 84.4748 463.595 84.7998 462.461 84.7998H459.586C458.453 84.7998 457.553 84.4748 456.886 83.8248C456.22 83.1581 455.886 82.2498 455.886 81.0998ZM479.529 84.7998H471.679C471.445 84.7998 471.329 84.6831 471.329 84.4498V69.0748C471.329 68.8415 471.445 68.7248 471.679 68.7248H479.529C479.762 68.7248 479.879 68.8415 479.879 69.0748V69.9748C479.879 70.2081 479.762 70.3248 479.529 70.3248H473.404C473.237 70.3248 473.154 70.3998 473.154 70.5498V75.5998C473.154 75.7498 473.237 75.8248 473.404 75.8248H478.754C478.987 75.8248 479.104 75.9415 479.104 76.1748V77.0748C479.104 77.3081 478.987 77.4248 478.754 77.4248H473.404C473.237 77.4248 473.154 77.4998 473.154 77.6498V82.9748C473.154 83.1248 473.237 83.1998 473.404 83.1998H479.529C479.762 83.1998 479.879 83.3165 479.879 83.5498V84.4498C479.879 84.6831 479.762 84.7998 479.529 84.7998ZM497.313 84.7998H496.188C495.955 84.7998 495.838 84.6831 495.838 84.4498V78.7748L491.088 69.0998C491.038 68.9831 491.038 68.8915 491.088 68.8248C491.138 68.7581 491.213 68.7248 491.313 68.7248H492.713C492.896 68.7248 493.038 68.8415 493.138 69.0748L496.713 76.6498H496.838L500.388 69.0748C500.455 68.8415 500.588 68.7248 500.788 68.7248H502.213C502.496 68.7248 502.571 68.8498 502.438 69.0998L497.663 78.7748V84.4498C497.663 84.6831 497.546 84.7998 497.313 84.7998ZM510.038 83.1998H512.588C513.988 83.1998 514.688 82.4748 514.688 81.0248V72.4998C514.688 71.0498 513.988 70.3248 512.588 70.3248H510.038C508.655 70.3248 507.963 71.0498 507.963 72.4998V81.0248C507.963 82.4748 508.655 83.1998 510.038 83.1998ZM512.813 84.7998H509.838C508.688 84.7998 507.78 84.4748 507.113 83.8248C506.463 83.1748 506.138 82.2665 506.138 81.0998V72.4248C506.138 71.2581 506.463 70.3498 507.113 69.6998C507.78 69.0498 508.688 68.7248 509.838 68.7248H512.813C513.963 68.7248 514.863 69.0581 515.513 69.7248C516.18 70.3748 516.513 71.2748 516.513 72.4248V81.0998C516.513 82.2498 516.18 83.1581 515.513 83.8248C514.863 84.4748 513.963 84.7998 512.813 84.7998ZM530.156 68.7248H531.281C531.515 68.7248 531.631 68.8331 531.631 69.0498V81.0998C531.631 82.2665 531.306 83.1748 530.656 83.8248C530.006 84.4748 529.106 84.7998 527.956 84.7998H525.181C524.031 84.7998 523.123 84.4748 522.456 83.8248C521.806 83.1748 521.481 82.2665 521.481 81.0998V69.0748C521.481 68.8415 521.598 68.7248 521.831 68.7248H522.956C523.19 68.7248 523.306 68.8415 523.306 69.0748V81.0248C523.306 82.4748 523.998 83.1998 525.381 83.1998H527.731C529.131 83.1998 529.831 82.4748 529.831 81.0248V69.0748C529.831 68.8415 529.94 68.7248 530.156 68.7248ZM538.324 84.7998H537.199C536.966 84.7998 536.849 84.6831 536.849 84.4498V69.0748C536.849 68.8415 536.966 68.7248 537.199 68.7248H542.949C544.099 68.7248 545.007 69.0581 545.674 69.7248C546.341 70.3748 546.674 71.2748 546.674 72.4248V74.6998C546.674 75.6331 546.449 76.4081 545.999 77.0248C545.549 77.6248 544.924 78.0248 544.124 78.2248V78.3248L547.024 84.3998C547.174 84.6665 547.091 84.7998 546.774 84.7998H545.649C545.366 84.7998 545.157 84.6831 545.024 84.4498L542.224 78.3998H538.924C538.757 78.3998 538.674 78.4748 538.674 78.6248V84.4498C538.674 84.6831 538.557 84.7998 538.324 84.7998ZM538.924 76.8748H542.699C544.132 76.8748 544.849 76.1581 544.849 74.7248V72.4998C544.849 71.0498 544.132 70.3248 542.699 70.3248H538.924C538.757 70.3248 538.674 70.3998 538.674 70.5498V76.6498C538.674 76.7998 538.757 76.8748 538.924 76.8748ZM561.5 83.2498H565.6C567.033 83.2498 567.75 82.5415 567.75 81.1248V79.4998C567.75 78.0831 566.983 77.3748 565.45 77.3748H561.5C561.333 77.3748 561.25 77.4498 561.25 77.5998V82.9998C561.25 83.1665 561.333 83.2498 561.5 83.2498ZM561.5 75.8498H565.35C566.816 75.8498 567.55 75.1415 567.55 73.7248V72.3998C567.55 70.9831 566.841 70.2748 565.425 70.2748H561.5C561.333 70.2748 561.25 70.3581 561.25 70.5248V75.6248C561.25 75.7748 561.333 75.8498 561.5 75.8498ZM559.425 84.4498V69.0748C559.425 68.8415 559.541 68.7248 559.775 68.7248H565.65C566.8 68.7248 567.7 69.0498 568.35 69.6998C569 70.3331 569.325 71.2248 569.325 72.3748V73.7498C569.325 75.2331 568.625 76.1915 567.225 76.6248C567.858 76.6748 568.4 76.9581 568.85 77.4748C569.3 77.9748 569.525 78.6415 569.525 79.4748V81.1498C569.525 82.2998 569.191 83.1998 568.525 83.8498C567.875 84.4831 566.975 84.7998 565.825 84.7998H559.775C559.541 84.7998 559.425 84.6831 559.425 84.4498ZM574.745 84.7998H573.495C573.279 84.7998 573.204 84.6831 573.27 84.4498L577.945 69.0748C578.012 68.8415 578.17 68.7248 578.42 68.7248H580.22C580.47 68.7248 580.629 68.8415 580.695 69.0748L585.37 84.4498C585.437 84.6831 585.362 84.7998 585.145 84.7998H583.87C583.687 84.7998 583.57 84.6831 583.52 84.4498L582.345 80.7998H576.295L575.12 84.4498C575.054 84.6831 574.929 84.7998 574.745 84.7998ZM579.27 70.5998L576.695 79.2498H581.945L579.37 70.5998H579.27ZM593.371 84.7998H592.246C592.013 84.7998 591.896 84.6831 591.896 84.4498V70.5498C591.896 70.3998 591.813 70.3248 591.646 70.3248H588.246C587.996 70.3248 587.871 70.2081 587.871 69.9748V69.0748C587.871 68.8415 587.996 68.7248 588.246 68.7248H597.371C597.621 68.7248 597.746 68.8415 597.746 69.0748V69.9748C597.746 70.2081 597.621 70.3248 597.371 70.3248H593.971C593.805 70.3248 593.721 70.3998 593.721 70.5498V84.4498C593.721 84.6831 593.605 84.7998 593.371 84.7998ZM605.44 84.7998H604.315C604.082 84.7998 603.965 84.6831 603.965 84.4498V70.5498C603.965 70.3998 603.882 70.3248 603.715 70.3248H600.315C600.065 70.3248 599.94 70.2081 599.94 69.9748V69.0748C599.94 68.8415 600.065 68.7248 600.315 68.7248H609.44C609.69 68.7248 609.815 68.8415 609.815 69.0748V69.9748C609.815 70.2081 609.69 70.3248 609.44 70.3248H606.04C605.873 70.3248 605.79 70.3998 605.79 70.5498V84.4498C605.79 84.6831 605.673 84.7998 605.44 84.7998ZM621.959 84.7998H613.934C613.701 84.7998 613.584 84.6831 613.584 84.4498V69.0748C613.584 68.8415 613.701 68.7248 613.934 68.7248H615.059C615.292 68.7248 615.409 68.8415 615.409 69.0748V82.9248C615.409 83.0748 615.492 83.1498 615.659 83.1498H621.959C622.192 83.1498 622.309 83.2748 622.309 83.5248V84.4498C622.309 84.6831 622.192 84.7998 621.959 84.7998ZM634.463 84.7998H626.613C626.38 84.7998 626.263 84.6831 626.263 84.4498V69.0748C626.263 68.8415 626.38 68.7248 626.613 68.7248H634.463C634.697 68.7248 634.813 68.8415 634.813 69.0748V69.9748C634.813 70.2081 634.697 70.3248 634.463 70.3248H628.338C628.172 70.3248 628.088 70.3998 628.088 70.5498V75.5998C628.088 75.7498 628.172 75.8248 628.338 75.8248H633.688C633.922 75.8248 634.038 75.9415 634.038 76.1748V77.0748C634.038 77.3081 633.922 77.4248 633.688 77.4248H628.338C628.172 77.4248 628.088 77.4998 628.088 77.6498V82.9748C628.088 83.1248 628.172 83.1998 628.338 83.1998H634.463C634.697 83.1998 634.813 83.3165 634.813 83.5498V84.4498C634.813 84.6831 634.697 84.7998 634.463 84.7998ZM645.825 84.7998H643.125C641.975 84.7998 641.067 84.4748 640.4 83.8248C639.75 83.1748 639.425 82.2665 639.425 81.0998V72.4248C639.425 71.2581 639.75 70.3498 640.4 69.6998C641.067 69.0498 641.975 68.7248 643.125 68.7248H645.825C646.975 68.7248 647.875 69.0581 648.525 69.7248C649.175 70.3748 649.5 71.2748 649.5 72.4248V73.4498C649.5 73.6998 649.383 73.8248 649.15 73.8248H648.025C647.792 73.8248 647.675 73.6998 647.675 73.4498V72.4998C647.675 71.0498 646.983 70.3248 645.6 70.3248H643.325C641.942 70.3248 641.25 71.0498 641.25 72.4998V81.0248C641.25 82.4748 641.942 83.1998 643.325 83.1998H645.6C646.983 83.1998 647.675 82.4748 647.675 81.0248V78.2248C647.675 78.0581 647.6 77.9748 647.45 77.9748H644.975C644.742 77.9748 644.625 77.8665 644.625 77.6498V76.7248C644.625 76.4915 644.742 76.3748 644.975 76.3748H649C649.333 76.3748 649.5 76.5498 649.5 76.8998V81.0998C649.5 82.2665 649.175 83.1748 648.525 83.8248C647.875 84.4748 646.975 84.7998 645.825 84.7998ZM656.075 84.7998H654.95C654.717 84.7998 654.6 84.6831 654.6 84.4498V69.0748C654.6 68.8415 654.717 68.7248 654.95 68.7248H660.7C661.85 68.7248 662.759 69.0581 663.425 69.7248C664.092 70.3748 664.425 71.2748 664.425 72.4248V74.6998C664.425 75.6331 664.2 76.4081 663.75 77.0248C663.3 77.6248 662.675 78.0248 661.875 78.2248V78.3248L664.775 84.3998C664.925 84.6665 664.842 84.7998 664.525 84.7998H663.4C663.117 84.7998 662.909 84.6831 662.775 84.4498L659.975 78.3998H656.675C656.509 78.3998 656.425 78.4748 656.425 78.6248V84.4498C656.425 84.6831 656.309 84.7998 656.075 84.7998ZM656.675 76.8748H660.45C661.884 76.8748 662.6 76.1581 662.6 74.7248V72.4998C662.6 71.0498 661.884 70.3248 660.45 70.3248H656.675C656.509 70.3248 656.425 70.3998 656.425 70.5498V76.6498C656.425 76.7998 656.509 76.8748 656.675 76.8748ZM673.078 83.1998H675.628C677.028 83.1998 677.728 82.4748 677.728 81.0248V72.4998C677.728 71.0498 677.028 70.3248 675.628 70.3248H673.078C671.695 70.3248 671.003 71.0498 671.003 72.4998V81.0248C671.003 82.4748 671.695 83.1998 673.078 83.1998ZM675.853 84.7998H672.878C671.728 84.7998 670.82 84.4748 670.153 83.8248C669.503 83.1748 669.178 82.2665 669.178 81.0998V72.4248C669.178 71.2581 669.503 70.3498 670.153 69.6998C670.82 69.0498 671.728 68.7248 672.878 68.7248H675.853C677.003 68.7248 677.903 69.0581 678.553 69.7248C679.22 70.3748 679.553 71.2748 679.553 72.4248V81.0998C679.553 82.2498 679.22 83.1581 678.553 83.8248C677.903 84.4748 677.003 84.7998 675.853 84.7998ZM693.197 68.7248H694.322C694.555 68.7248 694.672 68.8331 694.672 69.0498V81.0998C694.672 82.2665 694.347 83.1748 693.697 83.8248C693.047 84.4748 692.147 84.7998 690.997 84.7998H688.222C687.072 84.7998 686.163 84.4748 685.497 83.8248C684.847 83.1748 684.522 82.2665 684.522 81.0998V69.0748C684.522 68.8415 684.638 68.7248 684.872 68.7248H685.997C686.23 68.7248 686.347 68.8415 686.347 69.0748V81.0248C686.347 82.4748 687.038 83.1998 688.422 83.1998H690.772C692.172 83.1998 692.872 82.4748 692.872 81.0248V69.0748C692.872 68.8415 692.98 68.7248 693.197 68.7248ZM701.339 84.7998H700.239C700.006 84.7998 699.889 84.6831 699.889 84.4498V69.0748C699.889 68.8415 700.006 68.7248 700.239 68.7248H701.264C701.464 68.7248 701.598 68.7915 701.664 68.9248L708.564 81.0498H708.664V69.0748C708.664 68.8415 708.781 68.7248 709.014 68.7248H710.114C710.348 68.7248 710.464 68.8415 710.464 69.0748V84.4498C710.464 84.6831 710.348 84.7998 710.114 84.7998H709.189C709.006 84.7998 708.831 84.6915 708.664 84.4748L701.789 72.4748H701.689V84.4498C701.689 84.6831 701.573 84.7998 701.339 84.7998ZM717.891 83.1998H722.091C723.491 83.1998 724.191 82.4748 724.191 81.0248V72.4998C724.191 71.0498 723.491 70.3248 722.091 70.3248H717.891C717.724 70.3248 717.641 70.3998 717.641 70.5498V82.9748C717.641 83.1248 717.724 83.1998 717.891 83.1998ZM715.816 84.4498V69.0748C715.816 68.8415 715.932 68.7248 716.166 68.7248H722.316C723.466 68.7248 724.366 69.0581 725.016 69.7248C725.682 70.3748 726.016 71.2748 726.016 72.4248V81.0998C726.016 82.2498 725.682 83.1581 725.016 83.8248C724.366 84.4748 723.466 84.7998 722.316 84.7998H716.166C715.932 84.7998 715.816 84.6831 715.816 84.4498Z" fill="#F2EFE9"/>
<rect width="96" height="1" transform="translate(264 78)" fill="url(#paint0_linear_1_2387)"/>
<rect width="96" height="1" transform="translate(764 79)" fill="url(#paint1_linear_1_2387)"/>
<defs>
<linearGradient id="paint0_linear_1_2387" x1="48" y1="0" x2="48" y2="1" gradientUnits="userSpaceOnUse">
<stop stop-opacity="0"/>
<stop offset="1" stop-color="#FF003C"/>
</linearGradient>
<linearGradient id="paint1_linear_1_2387" x1="48" y1="0" x2="48" y2="1" gradientUnits="userSpaceOnUse">
<stop stop-opacity="0"/>
<stop offset="1" stop-color="#FF003C"/>
</linearGradient>
</defs>
</svg>
